<?xml version="1.0" encoding="UTF-8"?>
<svg id="_レイヤー_2" data-name="レイヤー 2" xmlns="http://www.w3.org/2000/svg" width="126.04mm" height="10.2mm" viewBox="0 0 357.29 28.91">
  <defs>
    <style>
      .cls-1 {
        fill: #0a326d;
      }
    </style>
  </defs>
  <g id="_レイヤー_1-2" data-name="レイヤー 1">
    <path class="cls-1" d="M6.75,11.92v7.76c0,1.23.52,1.56,1.72,1.56h1.69v1.38H0v-1.38h1.69c1.2,0,1.72-.34,1.72-1.56V3.42c0-1.23-.52-1.56-1.72-1.56H0V.47h10.16v1.38h-1.69c-1.2,0-1.72.34-1.72,1.56v6.97h10.28V3.42c0-1.23-.52-1.56-1.72-1.56h-1.69V.47h10.16v1.38h-1.69c-1.2,0-1.72.34-1.72,1.56v16.27c0,1.23.52,1.56,1.72,1.56h1.69v1.38h-10.16v-1.38h1.69c1.2,0,1.72-.34,1.72-1.56v-7.76H6.75"/>
    <path class="cls-1" d="M37.25,15.05c-5.31.73-6.69,1.84-6.69,4.11,0,1.47,1.2,2.39,2.58,2.39,1.9,0,4.11-1.53,4.11-4.05v-2.45M37.25,12.16c0-1.96-.86-2.86-3.31-2.86-2.06,0-2.85.62-2.85,1.04,0,.34.67,1.04.67,1.75,0,1.07-.74,1.51-1.72,1.51-1.11,0-1.63-.89-1.63-1.93,0-1.9,2.27-3.75,5.98-3.75,3.96,0,5.68,1.41,5.68,4.7,0,1.53-.09,5.89-.09,7.06,0,.55.43,1.41,1.13,1.41.83,0,1.04-.37,1.35-.37s.4.15.4.52c0,.46-1.14,1.69-2.73,1.69s-2.33-.8-2.73-2.3c-1.35,1.63-3.44,2.46-5.53,2.46-2.3,0-4.3-1.07-4.3-3.65,0-2.88,3.68-4.81,9.67-5.62v-1.66Z"/>
    <path class="cls-1" d="M53.92,8.39h8.04v1.22c-1.69.06-3.13.77-4.39,1.87l-2.24,1.96,4.27,5.65c1.35,1.78,1.96,2.18,3.84,2.3v1.23h-8.16v-1.23h1.1c.77,0,.92-.12.92-.52,0-.12-.15-.37-.37-.68l-3.62-4.97-1.93,1.81v2.95c0,1.04.43,1.41,1.66,1.41h.86v1.23h-7.86v-1.23h.86c1.23,0,1.66-.37,1.66-1.41V2.41c0-.74-.46-.86-1.47-.86h-1.41V.32L51.37.01v15.34l4.45-4.14c.4-.4.62-.77.62-1.07,0-.4-.49-.52-1.54-.52h-.98v-1.22"/>
    <path class="cls-1" d="M75.38,8.7l5.8-.31v11.84c0,.74.46.86,1.47.86h1.04v1.23l-5.34.31v-2.61h-.06c-.95,2.02-2.58,3.07-4.6,3.07-3.1,0-4.88-1.63-4.88-4.79v-7.52c0-.74-.46-.86-1.47-.86h-1.04v-1.23l5.34-.31v9.7c0,2.15.8,3.16,2.73,3.16,2.79,0,3.99-2.21,3.99-5.16v-5.31c0-.74-.46-.86-1.47-.86h-1.5v-1.23"/>
    <path class="cls-1" d="M96.75,21.4h.86c1.23,0,1.66-.37,1.66-1.41v-7.06c0-2-1.17-3.16-2.82-3.16-2.33,0-4.08,1.78-4.08,4.32v5.89c0,1.04.43,1.41,1.66,1.41h.86v1.23h-7.86v-1.23h.86c1.23,0,1.66-.37,1.66-1.41V2.41c0-.74-.46-.86-1.47-.86h-1.41V.32L92.37.01v10.99h.06c1.2-2.3,3.22-3.07,4.97-3.07,2.88,0,4.69,2.43,4.69,5.5v6.57c0,1.04.43,1.41,1.66,1.41h.86v1.23h-7.86v-1.23"/>
    <path class="cls-1" d="M113.94,21.86c1.93,0,3.5-1.51,3.5-6.35s-1.57-6.35-3.5-6.35-3.5,1.5-3.5,6.35,1.56,6.35,3.5,6.35M113.94,7.93c4.2,0,6.63,3.35,6.63,7.58s-2.42,7.58-6.63,7.58-6.63-3.35-6.63-7.58,2.42-7.58,6.63-7.58Z"/>
    <path class="cls-1" d="M131.62,9.46c-2.18,0-3.71,1.81-3.71,6.04s1.53,6.04,3.71,6.04,3.71-1.81,3.71-6.04-1.5-6.04-3.71-6.04M132.2.32l5.95-.31v19.79c0,1.35.31,1.6,2.52,1.6v1.23l-5.34.31v-2.7h-.06c-.68,1.9-2.18,2.86-4.24,2.86-3.96,0-6.26-3.25-6.26-7.4,0-4.85,2.89-7.77,6.23-7.77,1.84,0,3.41.83,4.27,2.37h.06V2.41c0-.74-.46-.86-1.47-.86h-1.66V.32Z"/>
    <path class="cls-1" d="M150.01,21.86c1.93,0,3.5-1.51,3.5-6.35s-1.56-6.35-3.5-6.35-3.5,1.5-3.5,6.35,1.56,6.35,3.5,6.35M150.01,7.93c4.2,0,6.63,3.35,6.63,7.58s-2.43,7.58-6.63,7.58-6.63-3.35-6.63-7.58,2.42-7.58,6.63-7.58Z"/>
    <path class="cls-1" d="M170.89,20.05c0,1.07.43,1.2,2.27,1.2,4.21,0,5.68-.49,6.87-2.05,1.41-1.84,1.78-4.23,1.78-7.64,0-7.55-2.3-9.7-8.25-9.7-2.42,0-2.67.3-2.67,1.38v16.82M164.14.47h10.22c4.39,0,7,1.01,8.62,2.91,1.81,2.15,2.76,4.91,2.76,8.44,0,2.98-1.04,6.17-2.94,8.04-2.15,2.12-4.39,2.76-8.69,2.76h-9.97v-1.38h1.69c1.2,0,1.72-.34,1.72-1.56V3.42c0-1.23-.52-1.56-1.72-1.56h-1.69V.47Z"/>
    <path class="cls-1" d="M202.27.46h8.65v1.38c-2.33.09-3.13.98-4.24,2.95l-4.88,8.72v5.83c0,1.63.09,1.9,1.84,1.9h1.72v1.38h-10.46v-1.38h1.72c1.75,0,1.84-.28,1.84-1.9v-5.56l-6.29-9.97c-.98-1.56-1.41-1.96-2.79-1.96h-.73V.46h9.82v1.38h-1.93c-.8,0-1.11.19-1.11.55,0,.34.06.58.49,1.26l5.09,8.13,3.53-6.23c.58-1.04.86-1.66.86-2.43,0-.98-.74-1.29-3.13-1.29V.46"/>
    <path class="cls-1" d="M234.47,21.39h.86c1.23,0,1.66-.37,1.66-1.41v-7.06c0-2-1.17-3.16-2.82-3.16-2.33,0-4.08,1.78-4.08,4.33v5.89c0,1.04.43,1.41,1.66,1.41h.86v1.23h-7.86v-1.23h.86c1.23,0,1.66-.37,1.66-1.41V2.39c0-.74-.46-.86-1.47-.86h-1.41V.31l5.71-.31v10.99h.06c1.2-2.3,3.22-3.07,4.97-3.07,2.89,0,4.7,2.42,4.7,5.49v6.57c0,1.04.43,1.41,1.66,1.41h.86v1.23h-7.86v-1.23"/>
    <path class="cls-1" d="M252.13,21.85c1.94,0,3.5-1.5,3.5-6.35s-1.56-6.35-3.5-6.35-3.5,1.5-3.5,6.35,1.56,6.35,3.5,6.35M252.13,7.92c4.21,0,6.63,3.35,6.63,7.58s-2.42,7.58-6.63,7.58-6.63-3.35-6.63-7.58,2.43-7.58,6.63-7.58Z"/>
    <path class="cls-1" d="M262.2.31l5.71-.31v19.98c0,1.04.43,1.41,1.66,1.41h.86v1.23h-7.86v-1.23h.86c1.23,0,1.66-.37,1.66-1.41V2.39c0-.74-.46-.86-1.47-.86h-1.41V.31"/>
    <path class="cls-1" d="M281.27,9.45c-2.18,0-3.72,1.81-3.72,6.05s1.54,6.04,3.72,6.04,3.71-1.81,3.71-6.04-1.5-6.05-3.71-6.05M281.85.31l5.96-.31v19.79c0,1.35.3,1.6,2.51,1.6v1.23l-5.34.31v-2.7h-.06c-.68,1.9-2.18,2.85-4.23,2.85-3.96,0-6.26-3.25-6.26-7.39,0-4.85,2.89-7.77,6.23-7.77,1.84,0,3.41.83,4.26,2.36h.06V2.39c0-.74-.46-.86-1.47-.86h-1.66V.31Z"/>
    <path class="cls-1" d="M298.79.46c1.01,0,1.84.83,1.84,1.84s-.83,1.84-1.84,1.84-1.84-.83-1.84-1.84.83-1.84,1.84-1.84M294.55,8.69l5.71-.31v11.6c0,1.04.43,1.41,1.66,1.41h.86v1.23h-7.98v-1.23h1.01c1.17,0,1.63-.31,1.63-1.5v-9.11c0-.74-.46-.86-1.47-.86h-1.41v-1.23Z"/>
    <path class="cls-1" d="M307.08,8.69l5.34-.31v2.61h.06c1.38-2.55,3.22-3.07,4.61-3.07,3.07,0,4.88,2.42,4.88,5.49v6.57c0,1.04.43,1.41,1.66,1.41h.86v1.23h-7.86v-1.23h.86c1.22,0,1.66-.37,1.66-1.41v-7.06c0-2-1.17-3.16-2.92-3.16-2.05,0-3.8,1.78-3.8,4.97v5.25c0,1.04.43,1.41,1.66,1.41h.86v1.23h-7.86v-1.23h.86c1.23,0,1.66-.37,1.66-1.41v-9.21c0-.74-.46-.86-1.47-.86h-1.04v-1.23"/>
    <path class="cls-1" d="M334.35,9.15c-1.66,0-3.07,1.01-3.07,3.81s1.41,3.8,3.07,3.8,3.07-1.01,3.07-3.8-1.41-3.81-3.07-3.81M335.3,22.93c-1.17,0-2.3.06-3.47.15-1.47.71-1.99,1.6-1.99,2.49,0,1.26,1.07,2.12,4.94,2.12,3.31,0,4.67-1.5,4.67-2.7,0-1.35-.98-2.06-4.14-2.06ZM336.71,20.53c3.28,0,4.75,1.32,4.75,3.47,0,3.13-2.51,4.91-6.94,4.91-5.25,0-7.15-1.23-7.15-3.34,0-1.17,1.47-2.49,3.04-2.64v-.06c-1.47-.31-2.33-1.32-2.33-2.79,0-1.32.74-2.48,3.04-3.01v-.06c-1.81-.74-2.67-2.21-2.67-4.18,0-3.31,3.01-4.91,5.95-4.91,1.44,0,2.76.28,3.93,1.17,1.01-1.08,2.15-1.62,2.97-1.62.95,0,2,.58,2,1.66,0,.86-.58,1.47-1.29,1.47-1.72,0-1.29-1.54-1.81-1.54-.31,0-.74.34-1.11.8.86.74,1.13,1.9,1.13,2.97,0,3.53-2.88,5.01-6.14,5.01-3.53,0-3.99.71-3.99,1.35,0,.89.34,1.35,1.87,1.35h4.73Z"/>
    <path class="cls-1" d="M355.23,8.07h1.07v5.09h-1.07c-.64-2.27-2.06-4.02-4.57-4.02-1.35,0-2.82.71-2.82,2.24,0,1.07.8,1.75,2.76,2.18l3.01.64c2.27.49,3.68,1.9,3.68,4.17,0,3.01-2.21,4.7-5,4.7-1.57,0-3.13-.46-4.36-1.5l-.95,1.35h-1.08v-5.83h1.08c.76,2.7,2.36,4.76,5.4,4.76,1.35,0,3.07-.8,3.07-2.36s-1.07-2.06-3.41-2.61l-2.36-.55c-2.73-.64-3.53-2.03-3.53-4.14,0-2.64,1.87-4.27,4.48-4.27,1.35,0,2.7.4,3.74,1.23l.86-1.07"/>
  </g>
</svg>