<svg width="131" height="254" viewBox="0 0 131 254" fill="none" xmlns="http://www.w3.org/2000/svg">
<path d="M94.3329 215.692L85.6663 230.412H85.3997L76.7463 215.692H67.5997L81.4397 238.652V252.959H89.6396V238.652L103.466 215.692H94.3329Z" fill="black"/>
<path d="M45.3598 237.852H60.6664V230.799H45.3598V222.572H65.0397V215.692H37.1732V252.959H65.4664V246.066H45.3598V237.852Z" fill="black"/>
<path d="M128.866 235.746C127.866 234.452 126.533 233.519 124.88 232.999C126.213 232.452 127.266 231.599 127.986 230.439C128.853 229.066 129.293 227.452 129.293 225.666C129.293 224.012 128.92 222.532 128.173 221.252C127.44 219.999 126.466 218.906 125.293 218.039C124.12 217.172 122.786 216.506 121.333 216.066C119.88 215.626 118.4 215.412 116.946 215.412C115.066 215.412 113.346 215.719 111.813 216.332C110.28 216.946 108.933 217.826 107.84 218.946C106.733 220.066 105.866 221.412 105.266 222.972C104.653 224.519 104.32 226.252 104.253 228.119V228.452H111.826V228.119C111.786 226.359 112.226 224.892 113.106 223.746C113.986 222.612 115.266 222.052 117.013 222.052H117.093C117.666 222.052 118.4 222.052 119.306 222.519C120.72 223.239 121.6 224.679 121.6 226.279C121.6 227.532 121.053 228.706 120.093 229.506C119.493 230.012 118.96 230.212 118.586 230.319C118.013 230.506 117.466 230.612 116.933 230.666C116.213 230.719 115.44 230.719 114.68 230.719H114.12V236.386H114.453C115.333 236.386 116.266 236.412 117.226 236.466C117.693 236.492 118.04 236.532 118.346 236.586C118.64 236.639 119.306 236.772 120.16 237.319C121.6 238.266 122.466 239.852 122.466 241.572C122.466 243.292 121.586 244.919 120.12 245.852C119.346 246.346 118.546 246.599 117.586 246.652C117.453 246.652 117.053 246.652 116.92 246.652C115.92 246.652 115.04 246.479 114.333 246.119C113.613 245.772 113 245.292 112.52 244.692C112.04 244.092 111.666 243.372 111.4 242.546C111.133 241.706 110.986 240.812 110.96 239.892V239.572H103.4V239.892C103.36 242.012 103.666 243.906 104.306 245.546C104.946 247.186 105.88 248.599 107.066 249.732C108.253 250.866 109.72 251.746 111.4 252.332C113.08 252.919 114.973 253.226 117.013 253.226C118.773 253.226 120.493 252.959 122.133 252.439C123.773 251.919 125.24 251.146 126.48 250.132C127.733 249.119 128.76 247.839 129.506 246.346C130.253 244.839 130.64 243.106 130.64 241.186C130.64 239.079 130.053 237.239 128.88 235.719L128.866 235.746Z" fill="black"/>
<path d="M33.7732 215.692H22.4532L8.62663 230.706H8.35999V215.692H0V252.959H8.35999V237.946H8.62663L22.4532 252.959H34.1065L16.7599 234.146L33.7732 215.692Z" fill="black"/>
<path d="M9.91996 198.199H3.6V191.666H0V207.679H3.6V201.159H9.91996V207.679H13.52V191.666H9.91996V198.199Z" fill="black"/>
<path d="M73.8397 197.919H67.5197V191.666H63.9197V207.679H67.5197V201.439H73.8397V207.679H77.4397V191.666H73.8397V197.919Z" fill="black"/>
<path d="M20.9066 191.666L14.8533 207.679H18.4799L19.7333 204.119H25.5332L26.7599 207.679H30.4932L24.5066 191.666H20.8932H20.9066ZM20.7866 201.159L22.6799 195.799L24.5199 201.159H20.7866Z" fill="black"/>
<path d="M57.7997 201.626C57.7997 202.826 57.5597 203.706 57.0797 204.266C56.5997 204.826 55.7331 205.106 54.4798 205.106C53.7598 205.106 53.1864 204.999 52.7598 204.799C52.3331 204.599 51.9998 204.333 51.7598 204.013C51.5198 203.693 51.3598 203.319 51.2931 202.906C51.2131 202.493 51.1864 202.066 51.1864 201.626V191.666H47.6664V201.626C47.6664 203.813 48.2664 205.426 49.4531 206.466C50.6398 207.519 52.3198 208.039 54.4931 208.039C56.6264 208.039 58.3064 207.506 59.5197 206.453C60.7331 205.399 61.3331 203.786 61.3331 201.626V191.666H57.8131V201.626H57.7997Z" fill="black"/>
<path d="M93.2796 193.733C92.6129 192.973 91.7863 192.373 90.8129 191.933C89.8396 191.493 88.7329 191.279 87.4929 191.279C86.253 191.279 85.1596 191.493 84.1863 191.933C83.213 192.373 82.3863 192.959 81.7063 193.733C81.0396 194.493 80.5196 195.386 80.1596 196.413C79.7996 197.439 79.6263 198.546 79.6263 199.746C79.6263 200.946 79.7996 201.999 80.1596 203.012C80.5196 204.026 81.0396 204.906 81.7063 205.653C82.3729 206.399 83.1996 206.986 84.1863 207.413C85.1596 207.839 86.2663 208.052 87.4929 208.052C88.7196 208.052 89.8396 207.839 90.8129 207.413C91.7863 206.986 92.6129 206.399 93.2796 205.653C93.9462 204.906 94.4663 204.026 94.8263 203.012C95.1862 201.999 95.3596 200.919 95.3596 199.746C95.3596 198.573 95.1862 197.439 94.8263 196.413C94.4663 195.386 93.9462 194.493 93.2796 193.733ZM91.6129 201.706C91.4529 202.346 91.1996 202.919 90.8663 203.426C90.5196 203.933 90.0796 204.346 89.5196 204.653C88.9596 204.959 88.2929 205.106 87.5063 205.106C86.7196 205.106 86.0396 204.959 85.493 204.653C84.933 204.346 84.4929 203.933 84.1463 203.426C83.7996 202.919 83.5463 202.346 83.3996 201.706C83.2396 201.066 83.1596 200.413 83.1596 199.746C83.1596 199.079 83.2396 198.359 83.3996 197.706C83.5596 197.053 83.813 196.466 84.1463 195.946C84.4929 195.426 84.933 195.013 85.493 194.706C86.0396 194.399 86.7196 194.253 87.5063 194.253C88.2929 194.253 88.9729 194.413 89.5196 194.706C90.0663 195.013 90.5196 195.426 90.8663 195.946C91.2129 196.466 91.4663 197.053 91.6129 197.706C91.7729 198.359 91.8529 199.039 91.8529 199.746C91.8529 200.453 91.7729 201.079 91.6129 201.706Z" fill="black"/>
<path d="M109.56 193.639C108.906 192.986 108.133 192.493 107.253 192.159C106.36 191.826 105.4 191.666 104.373 191.666H97.4662V207.679H104.373C105.6 207.679 106.666 207.479 107.573 207.066C108.48 206.653 109.226 206.093 109.84 205.373C110.44 204.653 110.893 203.799 111.2 202.813C111.493 201.826 111.653 200.746 111.653 199.586C111.653 198.253 111.466 197.093 111.106 196.106C110.746 195.119 110.226 194.293 109.586 193.639H109.56ZM107.773 202.159C107.546 202.773 107.253 203.266 106.88 203.653C106.506 204.039 106.08 204.306 105.6 204.466C105.12 204.626 104.626 204.706 104.12 204.706H100.986V194.613H103.493C104.36 194.613 105.093 194.733 105.68 194.986C106.266 195.226 106.746 195.586 107.106 196.053C107.466 196.519 107.72 197.079 107.88 197.719C108.04 198.373 108.12 199.093 108.12 199.906C108.12 200.786 108.013 201.533 107.786 202.146L107.773 202.159Z" fill="black"/>
<path d="M128.746 196.413C128.386 195.386 127.866 194.493 127.2 193.733C126.533 192.973 125.706 192.373 124.733 191.933C123.76 191.493 122.653 191.279 121.413 191.279C120.173 191.279 119.08 191.493 118.106 191.933C117.133 192.373 116.306 192.959 115.626 193.733C114.96 194.493 114.44 195.386 114.08 196.413C113.72 197.439 113.546 198.546 113.546 199.746C113.546 200.946 113.72 201.999 114.08 203.012C114.44 204.026 114.96 204.906 115.626 205.653C116.293 206.399 117.12 206.986 118.106 207.413C119.08 207.839 120.186 208.052 121.413 208.052C122.639 208.052 123.76 207.839 124.733 207.413C125.706 206.986 126.533 206.399 127.2 205.653C127.866 204.906 128.386 204.026 128.746 203.012C129.106 201.999 129.279 200.919 129.279 199.746C129.279 198.573 129.106 197.439 128.746 196.413ZM125.533 201.706C125.373 202.346 125.119 202.919 124.786 203.426C124.439 203.933 124 204.346 123.44 204.653C122.893 204.959 122.213 205.106 121.426 205.106C120.64 205.106 119.96 204.959 119.413 204.653C118.853 204.346 118.413 203.933 118.066 203.426C117.72 202.919 117.466 202.346 117.32 201.706C117.16 201.066 117.08 200.413 117.08 199.746C117.08 199.079 117.16 198.359 117.32 197.706C117.48 197.053 117.733 196.466 118.066 195.946C118.413 195.426 118.853 195.013 119.413 194.706C119.96 194.399 120.64 194.253 121.426 194.253C122.213 194.253 122.893 194.413 123.44 194.706C123.986 195.013 124.439 195.426 124.786 195.946C125.133 196.466 125.386 197.053 125.533 197.706C125.693 198.359 125.773 199.039 125.773 199.746C125.773 200.453 125.693 201.079 125.533 201.706Z" fill="black"/>
<path d="M46.2932 191.666H41.5065L35.5732 198.119H35.4665V191.666H31.8666V207.679H35.4665V201.226H35.5732L41.5065 207.679H46.4398L38.9065 199.599L46.2932 191.666Z" fill="black"/>
<path d="M44.4532 54.8664L30.3066 98.4129C17.24 88.3863 8.79999 72.613 8.79999 54.8664C8.79999 24.5732 33.3599 0 63.6664 0C93.973 0 118.533 24.5599 118.533 54.8664C118.533 72.613 110.106 88.3863 97.0263 98.4129L82.8797 54.8664H44.4532ZM63.6664 109.72C51.1198 109.72 39.5465 105.506 30.3066 98.4129L8.79999 164.586H118.52L97.013 98.4129C87.773 105.506 76.1997 109.72 63.6531 109.72H63.6664Z" fill="url(#paint0_linear_1_46)"/>
<defs>
<linearGradient id="paint0_linear_1_46" x1="98.4396" y1="9.31996" x2="34.9999" y2="183.626" gradientUnits="userSpaceOnUse">
<stop stop-color="#E1CB8B"/>
<stop offset="0.52" stop-color="#BFA447"/>
<stop offset="1" stop-color="#AC8E3B"/>
</linearGradient>
</defs>
</svg>
